HIERARCHY
ROOT ui
{
	 OFFSET 0 0 0
	 CHANNELS 3 XPosition YPosition Z Position
	 EndSite
	 {
	 OFFSET 0 -1 0
	 }
}
ROOT li
{
	 OFFSET 0 0 0
	 CHANNELS 3 XPosition YPosition Z Position
	 EndSite
	 {
	 OFFSET 0 -1 0
	 }
}
ROOT ul
{
	 OFFSET 0 0 0
	 CHANNELS 3 XPosition YPosition Z Position
	 EndSite
	 {
	 OFFSET 0 -1 0
	 }
}
ROOT ll
{
	 OFFSET 0 0 0
	 CHANNELS 3 XPosition YPosition Z Position
	 EndSite
	 {
	 OFFSET 0 -1 0
	 }
}
ROOT tt
{
	 OFFSET 0 0 0
	 CHANNELS 3 XPosition YPosition Z Position
	 EndSite
	 {
	 OFFSET 0 -1 0
	 }
}
ROOT tb
{
	 OFFSET 0 0 0
	 CHANNELS 3 XPosition YPosition Z Position
	 EndSite
	 {
	 OFFSET 0 -1 0
	 }
}
ROOT td
{
	 OFFSET 0 0 0
	 CHANNELS 3 XPosition YPosition Z Position
	 EndSite
	 {
	 OFFSET 0 -1 0
	 }
}
ROOT v
{
	 OFFSET 0 0 0
	 CHANNELS 3 XPosition YPosition Z Position
	 EndSite
	 {
	 OFFSET 0 -1 0
	 }
}
ROOT bn
{
	 OFFSET 0 0 0
	 CHANNELS 3 XPosition YPosition Z Position
	 EndSite
	 {
	 OFFSET 0 -1 0
	 }
}
MOTION
Frames: 21
Frame Time: 0.002
-0.009396137237548828	-0.009168871879577637	0		0.6182445068359375	-2.736888671875	0		-1.0935482177734375	0.09052689361572265	0		-0.39527822875976565	-2.790830322265625	0		1.9974970703125	-1.5961729736328125	0		3.482337890625	-0.9494208374023437	0		4.81128466796875	-0.17827012634277345	0		6.00361474609375	0.4809819641113281	0		-0.2644798583984375	5.91134814453125	0		
-0.014458783149719238	-0.005318699836730957	0		0.6301357421875	-2.7431796875	0		-1.092728759765625	0.081306640625	0		-0.3852432861328125	-2.78112060546875	0		2.0071558837890624	-1.6264229736328124	0		3.49928076171875	-0.9467108764648438	0		4.8342236328125	-0.17459242248535156	0		6.00354443359375	0.4808142395019531	0		-0.2646823425292969	5.91014990234375	0		
0.0014969849586486817	3.337169885635376E-4	0		0.637181884765625	-2.734432373046875	0		-1.114871337890625	0.07627275848388672	0		-0.37013424682617185	-2.76546826171875	0		2.0678447265625	-1.655123046875	0		3.546034423828125	-0.9662520751953125	0		4.85817431640625	-0.16989898681640625	0		6.0224267578125	0.39725015258789065	0		-0.2317484130859375	5.92864453125	0		
0.027406726837158203	-1.1010300368070602E-4	0		0.6621295776367188	-2.73984814453125	0		-1.0040115966796874	0.07004158020019531	0		-0.3760069885253906	-2.750639892578125	0		2.067654541015625	-1.6722733154296876	0		3.547107421875	-0.9513681030273438	0		4.87721337890625	-0.1561351776123047	0		6.00341015625	0.4806487426757812	0		-0.23300706481933595	5.92943310546875	0		
-0.0036324660778045653	0.003944938898086548	0		0.6222175903320313	-2.7326904296875	0		-1.1181561279296874	0.06279249572753906	0		-0.38975173950195313	-2.724750732421875	0		2.12332861328125	-1.70791064453125	0		3.558924560546875	-0.9675631713867188	0		4.8971337890625	-0.157352783203125	0		6.00335595703125	0.48065240478515625	0		-0.24938772583007812	5.9193466796875	0		
0.012219758987426757	-0.006419386863708496	0		0.6482472534179687	-2.7361162109375	0		-1.08425439453125	0.05822234725952148	0		-0.45358709716796874	-2.712428955078125	0		2.125218994140625	-1.722061279296875	0		3.572897216796875	-0.9687589111328125	0		4.9151953125	-0.1445273742675781	0		6.0033125	0.4807100219726563	0		-0.2496982879638672	5.9191123046875	0		
-0.005829305171966553	-0.007487232208251953	0		0.63228369140625	-2.74217138671875	0		-1.1123060302734376	0.057189990997314456	0		-0.39751080322265625	-2.714166015625	0		2.167021484375	-1.749552734375	0		3.620707763671875	-0.991234375	0		4.9400810546875	-0.15373860168457032	0		6.0032822265625	0.4808154907226562	0		-0.2641244201660156	5.90699755859375	0		
0.02224186325073242	0.0030439469814300536	0		0.6275393676757812	-2.72632080078125	0		-1.1353753662109376	0.052108535766601564	0		-0.46917578125	-2.6887861328125	0		2.174017333984375	-1.7577271728515624	0		3.623021484375	-0.9582926025390625	0		4.9571689453125	-0.1418590087890625	0		6.0032646484375	0.4809620971679687	0		-0.2795452270507813	5.89589013671875	0		
-0.003765296936035156	0.003050067901611328	0		0.6276775512695313	-2.7265068359375	0		-1.1014219970703125	0.04753440475463867	0		-0.42599801635742185	-2.684402587890625	0		2.245910888671875	-1.7804515380859376	0		3.65575244140625	-0.994601806640625	0		4.97716748046875	-0.1419857177734375	0		6.00325732421875	0.4811435241699219	0		-0.2788779602050781	5.894646484375	0		
0.019212066650390627	-3.5813599824905393E-4	0		0.6507616577148437	-2.734880126953125	0		-1.10948876953125	0.039332324981689454	0		-0.45475982666015624	-2.674387939453125	0		2.257840576171875	-1.800641357421875	0		3.68193896484375	-0.9798358154296875	0		4.99615283203125	-0.1450865478515625	0		6.0111044921875	0.4811897888183594	0		-0.27433447265625	5.87837841796875	0		
-0.0237585506439209	0.0018115739822387696	0		0.6229315795898438	-2.733803955078125	0		-1.0655244140625	0.03369845199584961	0		-0.41357861328125	-2.671960693359375	0		2.31077734375	-1.8211671142578125	0		3.691823974609375	-1.0009168701171876	0		5.02022216796875	-0.139216064453125	0		6.00326611328125	0.481583740234375	0		-0.30969537353515625	5.8724638671875	0		
-0.003739408016204834	0.002458611965179443	0		0.633012451171875	-2.743037109375	0		-1.1325208740234376	0.03302734375	0		-0.4544483947753906	-2.6748173828125	0		2.2808447265625	-1.825971435546875	0		3.69393115234375	-0.9959190063476563	0		5.03315576171875	-0.14923992919921875	0		6.00327294921875	0.48182791137695313	0		-0.3090060119628906	5.8712568359375	0		
0.0012342549562454224	-0.0017468589544296265	0		0.6382186889648438	-2.736210693359375	0		-1.12444775390625	0.04073864364624023	0		-0.40923858642578126	-2.66738330078125	0		2.3258427734375	-1.8383970947265624	0		3.743701171875	-1.0303140869140626	0		5.0521533203125	-0.15130671691894532	0		6.00327734375	0.48207916259765626	0		-0.2731808776855469	5.88477392578125	0		
-0.003731165885925293	0.002153165102005005	0		0.6284253540039062	-2.727238525390625	0		-1.1125330810546874	0.030443227767944336	0		-0.4050692443847656	-2.662578125	0		2.340779541015625	-1.8565533447265625	0		3.732036376953125	-0.9961785278320312	0		5.0602783203125	-0.13727584838867188	0		6.01123583984375	0.5150411987304687	0		-0.29250106811523435	5.87977880859375	0		
-0.0037395639419555665	0.0020352280139923095	0		0.64945068359375	-2.73750390625	0		-1.0816104736328125	0.022019332885742187	0		-0.3720054016113281	-2.66798828125	0		2.388624755859375	-1.88396923828125	0		3.752753662109375	-1.034308837890625	0		5.080275390625	-0.13734184265136717	0		6.00327001953125	0.48258013916015624	0		-0.3078543701171875	5.8687734375	0		
-0.010808119773864746	-0.00399810791015625	0		0.6314697875976563	-2.745421142578125	0		-1.12162060546875	0.023218669891357423	0		-0.44085443115234374	-2.659521728515625	0		2.40858544921875	-1.8951356201171874	0		3.755815185546875	-1.0292830810546876	0		5.09606201171875	-0.1613726043701172	0		6.00325634765625	0.48281900024414065	0		-0.3080958251953125	5.86867041015625	0		
-0.016738204956054686	0.007987669944763184	0		0.6335442504882812	-2.743480712890625	0		-1.1047010498046874	0.016979537963867187	0		-0.40079229736328126	-2.658929443359375	0		2.423467041015625	-1.9132452392578125	0		3.790635498046875	-1.051514892578125	0		5.10907861328125	-0.15638069152832032	0		6.00323388671875	0.48304400634765626	0		-0.30436236572265624	5.86256494140625	0		
-0.003826128005981445	0.0018475120067596436	0		0.6335757446289062	-2.743497314453125	0		-1.0956820068359374	0.02384440040588379	0		-0.42177044677734377	-2.65979931640625	0		2.41842822265625	-1.9191754150390625	0		3.80072265625	-1.03953466796875	0		5.12209375	-0.15039170837402344	0		6.02450341796875	0.453415283203125	0		-0.3045484008789062	5.8625244140625	0		
0.02213147163391113	0.0016322239637374877	0		0.6595585327148438	-2.746700927734375	0		-1.0838065185546875	0.01372471523284912	0		-0.4237882385253906	-2.662791748046875	0		2.432355224609375	-1.927247802734375	0		3.827460693359375	-1.0686881103515624	0		5.14103759765625	-0.15245628356933594	0		6.01113330078125	0.5161520385742188	0		-0.3046963500976563	5.86251708984375	0		
-0.016858041763305662	0.007982654094696045	0		0.6295405883789063	-2.74741748046875	0		-1.0838466796875	0.013743327140808106	0		-0.42379986572265627	-2.66276611328125	0		2.4802109375	-1.942585205078125	0		3.853562744140625	-1.0528310546875	0		5.15186767578125	-0.16846096801757812	0		6.01099365234375	0.4834474182128906	0		-0.3047990417480469	5.8625439453125	0		
0.01903243827819824	-0.00125130295753479	0		0.6544723510742188	-2.752559326171875	0		-1.083881103515625	0.013801413536071777	0		-0.42584283447265625	-2.664689697265625	0		2.493009521484375	-1.9636226806640624	0		3.83043359375	-1.0645693359375	0		5.16981640625	-0.17053228759765626	0		6.003123046875	0.48374029541015623	0		-0.3048506164550781	5.8626044921875	0		
